<svg xmlns="http://www.w3.org/2000/svg" viewBox="0 0 64 64">
  <rect width="64" height="64" rx="14" fill="#0f1623"/>
  <!-- sun -->
  <g fill="#ffd166">
    <circle cx="26" cy="24" r="9"/>
    <g stroke="#ffd166" stroke-width="2.6" stroke-linecap="round">
      <line x1="26" y1="6"  x2="26" y2="11"/>
      <line x1="26" y1="37" x2="26" y2="42"/>
      <line x1="8"  y1="24" x2="13" y2="24"/>
      <line x1="39" y1="24" x2="44" y2="24"/>
      <line x1="13.2" y1="11.2" x2="16.7" y2="14.7"/>
      <line x1="35.3" y1="33.3" x2="38.8" y2="36.8"/>
      <line x1="38.8" y1="11.2" x2="35.3" y2="14.7"/>
      <line x1="16.7" y1="33.3" x2="13.2" y2="36.8"/>
    </g>
  </g>
  <!-- cloud -->
  <g fill="#e8edf5">
    <circle cx="30" cy="40" r="11"/>
    <circle cx="44" cy="38" r="13"/>
    <circle cx="22" cy="44" r="9"/>
    <rect x="20" y="42" width="34" height="12" rx="6"/>
  </g>
  <!-- rain -->
  <g stroke="#4ea1ff" stroke-width="3" stroke-linecap="round">
    <line x1="26" y1="56" x2="24" y2="61"/>
    <line x1="36" y1="56" x2="34" y2="61"/>
    <line x1="46" y1="56" x2="44" y2="61"/>
  </g>
</svg>
